PathFileType	4	(X/Y/Z)	C:/Users/beibeiliu/ov580/test_trc/User2\sequence.7_training_dense_right.trc
DataRate	CameraRate	NumFrames	NumMarkers	Units	OrigDataRate	OrigDataStartFrame	OrigNumFrames
120	120	8	19	mm	120	57	113
Frame#	Time	ThumbCMC			ThumbMCP			ThumbIP			ThumbTip			IndexMCP			IndexPIP			IndexTip			MiddleMCP			MiddlePIP			MiddleTip			RingMCP			RingPIP			RingTip			PinkyMCP			PinkyPIP			PinkyTip			BackHand1			BackHand2			BackHand3	
		X0	Y0	Z0	X1	Y1	Z1	X2	Y2	Z2	X3	Y3	Z3	X4	Y4	Z4	X5	Y5	Z5	X6	Y6	Z6	X7	Y7	Z7	X8	Y8	Z8	X9	Y9	Z9	X10	Y10	Z10	X11	Y11	Z11	X12	Y12	Z12	X13	Y13	Z13	X14	Y14	Z14	X15	Y15	Z15	X16	Y16	Z16	X17	Y17	Z17	X18	Y18	Z18	
56	0.466667	68.1308	53.2008	-1.94519	68.5893	85.0984	-17.1557	55.1619	110.599	-33.9248	29.2951	121.046	-40.8838	17.4355	46.165	-68.3316	3.92355	61.1823	-90.298	-13.2692	93.0697	-84.4472	-6.37366	31.8285	-62.1363	-31.825	48.1322	-81.6526	-44.0244	85.2481	-74.4831	-24.0245	29.6669	-43.4409	-50.6781	45.8096	-58.4493	-58.2212	78.4681	-52.9627	-37.1443	30.4049	-16.2524	-64.8674	48.1395	-22.3124	-67.5969	79.7003	-20.9575	8.85397	11.3682	-3.05809	28.5329	-1.38536	18.86	45.4407	18.7465	-11.6329	
57	0.475	77.6804	49.7721	-2.72104	80.593	80.5986	-23.2898	70.7381	108.906	-43.0324	47.513	117.405	-47.2805	31.5291	43.0876	-70.9431	14.555	58.0615	-95.9738	1.98936	91.3397	-90.0365	1.23097	30.5404	-65.0695	-20.1065	49.8051	-90.88	-30.704	84.7217	-85.0001	-18.0764	30.87	-45.8779	-38.2403	47.1794	-66.061	-41.6498	83.5526	-67.6115	-33.8477	34.4271	-19.9392	-52.3534	54.7048	-33.5731	-55.1231	89.006	-35.1405	16.4409	13.9985	-6.80918	28.7055	1.46698	16.8071	50.3675	16.3726	-11.7205	
58	0.483333	83.3308	45.0142	-7.73766	90.4884	74.0329	-24.2196	85.2675	100.284	-46.3587	56.2366	110.135	-56.7698	40.4655	33.7535	-74.6386	29.4272	49.3224	-104.041	18.0633	80.5653	-100.459	13.4948	21.9437	-69.282	-10.4826	39.2533	-97.7015	-15.6201	78.031	-98.4751	-5.16214	24.2108	-55.5402	-28.9777	40.2869	-74.2441	-32.0712	72.164	-79.5863	-24.406	30.1365	-26.7564	-45.2834	49.6935	-42.5237	-48.7927	80.2299	-48.2752	20.6017	10.3375	-7.50181	35.9945	-2.54075	19.4102	58.9953	10.4801	-11.9936	
59	0.491667	88.8594	38.6216	-10.529	97.6824	67.4399	-31.3942	84.1647	89.0063	-55.2574	62.4896	98.7598	-66.487	54.4549	19.6543	-80.722	39.5324	29.6438	-108.208	24.1375	61.9884	-107.492	23.0695	5.84645	-77.9825	2.66073	19.6351	-105.78	-7.55033	54.8007	-108.084	2.00735	6.78466	-60.9001	-18.3555	19.5284	-83.7841	-25.1497	52.0817	-89.6385	-14.7463	15.8251	-33.3158	-37.4421	31.7698	-51.4497	-38.7701	59.7849	-61.3642	28.6161	1.1139	-16.9261	43.7633	-9.62548	15.7342	67.0549	1.24235	-13.8567	
60	0.5	97.7881	35.4044	-13.2445	96.6085	59.3838	-36.2546	89.6129	81.5327	-62.93	63.232	87.1895	-79.1034	62.702	2.945	-85.7638	50.7736	14.9512	-115.647	35.7791	46.4742	-116.485	38.9836	-9.77722	-79.4755	20.0004	-1.49859	-111.518	0.824711	37.7714	-113.998	12.224	-11.5924	-68.2713	-5.14241	-1.55219	-90.2382	-15.1467	31.4617	-99.1681	-5.71409	-1.22677	-39.9806	-24.5973	12.1293	-65.9784	-34.0271	37.3075	-72.4642	37.6758	-11.9876	-18.7438	51.5614	-17.0202	12.0145	75.6364	-5.81311	-19.5193	
61	0.508333	100.986	32.2306	-20.0749	104.102	59.1991	-41.0319	92.4186	76.8097	-71.2631	65.6265	73.6895	-83.2743	77.5069	-5.36973	-84.7814	61.1036	-1.74927	-117.288	47.8131	27.4733	-122.124	49.1908	-22.9689	-80.3773	33.3159	-17.4801	-116.666	16.5668	16.6385	-122.362	29.8001	-24.4736	-71.9596	12.2346	-21.7973	-96.0467	-2.72742	8.8531	-108.06	7.87677	-18.1399	-50.2983	-13.786	-11.5983	-69.6411	-22.0428	18.2956	-86.9433	47.6382	-19.3047	-22.4942	60.395	-21.6	9.12219	88.3865	-8.41095	-20.5085	
62	0.516667	105.976	34.3972	-20.118	102.534	58.5173	-43.8017	90.2107	73.0688	-77.0493	66.449	67.5519	-90.9602	88.2059	-10.3928	-85.1664	77.8223	-10.5901	-116.03	58.242	19.6592	-125.27	66.5124	-33.5648	-86.7744	51.6696	-28.363	-118.518	27.5839	5.17891	-124.777	43.5141	-35.2686	-71.4964	29.3238	-32.9366	-103.607	10.6767	-3.17144	-115.294	20.695	-31.0109	-49.9792	1.37903	-28.1887	-78.4356	-7.71528	-2.06118	-94.297	61.583	-24.1786	-21.7008	69.8221	-25.015	10.9534	94.9306	-8.45913	-20.9072	
63	0.525	103.388	42.8298	-19.3555	96.1404	64.9698	-43.1011	84.632	78.842	-73.7495	60.7948	66.6348	-93.3646	101.035	-5.27755	-84.9357	95.7314	-1.38245	-120.048	65.3975	18.0914	-123.494	84.4682	-29.5804	-85.2057	72.48	-29.9958	-118.084	40.5672	-0.126679	-127.431	61.9056	-38.6038	-72.8594	48.2418	-41.2375	-103.028	28.5449	-17.1339	-117.476	37.7571	-39.2822	-54.0994	23.4267	-41.1493	-81.4579	5.94882	-20.4793	-99.2886	74.1137	-27.0377	-25.3328	80.0123	-22.1877	10.7099	104.104	-0.365533	-19.4483	
